<svg width="30" height="30" viewBox="0 0 30 30" fill="none" xmlns="http://www.w3.org/2000/svg">
<path d="M29.6203 1.17188C29.503 0.820312 29.2097 0.527344 28.8578 0.410156C26.9809 0 25.4559 0 23.9895 0C17.8895 0 14.1943 3.28125 11.4962 7.5H5.51348C4.57502 7.55859 3.46059 8.20312 2.99136 9.08203L0.117308 14.8828C0.0586541 15.0586 0 15.293 0 15.4687C0 16.2891 0.586541 16.875 1.4077 16.875H6.80387L6.21733 18.1641C5.63079 19.2773 6.45195 20.2148 6.56926 20.332L9.67792 23.4375C9.79523 23.5547 10.7337 24.375 11.8481 23.7891L13.0799 23.2031V28.5938C13.1385 29.4141 13.7251 30 14.4876 30C14.7222 30 14.9568 29.9414 15.1328 29.8828L20.9395 27.0117C21.7607 26.543 22.4645 25.4297 22.4645 24.4922V18.5156C26.7463 15.7617 29.9722 12.1289 29.9722 6.03516C30.0309 4.57031 30.0309 3.04688 29.6203 1.17188ZM2.11155 15L4.69233 9.90234C4.86829 9.60938 5.22021 9.43359 5.51348 9.375H10.5577C9.73658 11.0742 8.6808 13.125 7.74234 15H2.11155ZM20.5876 24.4922C20.5876 24.7852 20.353 25.1953 20.0597 25.3125L14.9568 27.832V22.2656C16.8337 21.3281 18.9453 20.2734 20.5876 19.4531V24.4922ZM21.4674 16.9336C19.1212 18.1055 13.4904 20.918 11.027 22.1484L7.85965 18.9844C9.09138 16.5234 11.9068 10.8398 13.0212 8.55469C16.0126 3.92578 19.3558 1.875 23.9895 1.875C25.2213 1.875 26.453 1.875 27.8607 2.16797C28.154 3.63281 28.154 4.80469 28.0953 6.03516C28.0953 10.6641 26.0424 14.0039 21.4674 16.9336ZM21.526 5.21484C19.7664 5.21484 18.2414 6.67969 18.2414 8.49609C18.2414 10.2539 19.7664 11.7773 21.526 11.7773C23.3443 11.7773 24.8107 10.2539 24.8107 8.49609C24.8107 6.67969 23.3443 5.21484 21.526 5.21484ZM21.526 9.90234C20.7635 9.90234 20.1184 9.25781 20.1184 8.49609C20.1184 7.67578 20.7635 7.08984 21.526 7.08984C22.3472 7.08984 22.9337 7.67578 22.9337 8.49609C22.9337 9.25781 22.3472 9.90234 21.526 9.90234Z" fill="white"/>
</svg>
